<?xml version="1.0" encoding="UTF-8" standalone="no"?>
<!DOCTYPE svg PUBLIC "-//W3C//DTD SVG 1.1//EN" "http://www.w3.org/Graphics/SVG/1.1/DTD/svg11.dtd">
<svg version="1.1" xmlns="http://www.w3.org/2000/svg" xmlns:xlink="http://www.w3.org/1999/xlink" preserveAspectRatio="xMidYMid meet" viewBox="0 0 512 512" width="512" height="512"><defs><path d="M0 0L512 0L512 512L0 512L0 0Z" id="gkM9R1p64"></path><path d="M375.48 251.24L265.5 302.38L265.72 485.76L477.01 266.35L390.02 244.54L375.48 251.24Z" id="c1E5csRCXq"></path><path d="M362.75 359.87L356.8 374.57L308.2 365.61C311.2 357.91 312.87 353.64 313.2 352.78C317.94 349.28 322.45 345.49 326.71 341.42C332.65 335.99 338.19 330.14 343.28 323.91C347.86 318.2 352.07 312.2 355.89 305.95C359.58 300.25 362.76 294.24 365.4 287.98C366.81 288.23 378.06 290.24 379.47 290.49C373.22 305.38 363.1 320.19 349.11 334.92C340.24 344.01 333.36 350.22 328.46 353.55C333.03 354.4 344.46 356.5 362.75 359.87Z" id="a35pu7Zpln"></path><path d="M121.6 244.33L36.89 266.1L246.47 486L246.47 302.38L136.53 251.24L121.6 244.33Z" id="bm5vrGFyE"></path><path d="M140.75 295.19C149.46 293.59 158.41 296.1 165.02 301.99C169.55 306.04 173.35 310.84 176.25 316.18C174.94 316.44 164.48 318.58 163.17 318.85C161.78 316.12 159.96 313.63 157.78 311.48C154.32 308.23 150.57 306.94 146.52 307.63C146.47 307.63 146.08 307.71 146.03 307.72C143.6 308.1 141.6 309.82 140.87 312.17C140.01 314.55 140.63 317.72 142.67 321.54C145.39 326.61 148.99 329.62 153.48 330.57C156.32 331.02 159.22 330.95 162.04 330.36C162.16 330.34 162.78 330.23 163.91 330.02C167.38 336.51 169.31 340.12 169.7 340.84C165.43 341.79 162.69 342.89 161.47 344.12C159.33 346.22 159.47 349.53 161.9 354.05C163.28 356.79 165.39 359.11 167.98 360.75C170.17 362.17 172.8 362.71 175.37 362.28C175.41 362.27 175.74 362.21 175.79 362.2C178.96 361.56 180.65 359.97 180.86 357.44C181.13 354.87 180.21 351.7 178.12 347.93C179.35 347.67 189.26 345.64 190.5 345.38C192.31 348.95 193.69 352.72 194.6 356.61C195.14 359.74 194.92 362.96 193.96 365.99C193.19 368.14 191.82 370.03 190 371.4C187.6 373.07 184.85 374.17 181.97 374.64C181.85 374.66 180.9 374.83 180.78 374.85C174.81 375.87 168.67 374.92 163.29 372.15C157.2 369.07 152.26 364.14 149.16 358.06C146.74 353.53 145.87 349.47 146.55 345.87C146.81 343.98 147.7 342.24 149.07 340.92C149.07 340.92 149.01 340.92 149 340.92C147.78 341.13 145.43 340.3 141.96 338.43C136.4 335.28 131.91 330.55 129.05 324.83C125.55 318.33 124.46 312.19 125.77 306.44C127.07 300.68 131.63 297.01 139.44 295.44C139.7 295.39 140.49 295.24 140.75 295.19Z" id="b7qELigSZ"></path><path d="M27.19 248.87C92.46 179.08 128.72 140.31 135.97 132.56C136.44 132.51 136.92 132.51 137.4 132.56C137.41 132.56 137.54 132.56 137.55 132.56C139.64 132.79 140.59 134.02 140.39 136.27C139.93 139.18 138.8 141.95 137.1 144.37C134.52 148.4 131.22 151.92 127.37 154.77C124.76 156.73 119.75 159.9 112.33 164.29C103.8 169.29 97.28 174.21 92.78 179.06C88.47 183.49 84.61 188.34 81.26 193.54C83.46 193.79 94.43 195.04 114.17 197.3L122.35 184.34C109.77 182.91 102.78 182.12 101.39 181.96C102.86 180.55 104.45 179.27 106.14 178.13C107.73 177.06 110.54 175.35 114.59 173C115.23 172.63 120.37 169.63 121.01 169.26C125.55 166.7 129.87 163.76 133.91 160.48C138.81 156.36 143.03 151.49 146.42 146.07C150.98 138.84 153.15 132.85 152.92 128.11C152.73 124.16 150.81 121.68 147.23 120.6C152.55 114.93 179.15 86.54 227.03 35.44L124.93 215.02L119.23 225.08L27.19 248.87Z" id="c2cgeHY4li"></path><path d="M390.67 168.38C390.67 166.34 391.86 165.18 394.24 164.93C394.3 164.93 394.75 164.93 394.81 164.93C397.29 164.94 399.71 165.72 401.72 167.18C404.82 169.34 407.48 172.07 409.56 175.23C412.01 178.75 413.25 181.55 413.27 183.62C413.27 185.72 412.08 186.88 409.77 187.19C409.71 187.19 409.23 187.19 409.18 187.19C406.66 187.16 404.22 186.33 402.22 184.81C399.15 182.69 396.51 180.02 394.43 176.93C391.88 173.25 390.63 170.41 390.67 168.38Z" id="d1uauDLU"></path><path d="M285.02 35.37L368.97 125.01C368.25 125.01 367.86 125.01 367.78 125.01C367.4 125.01 366.8 125.01 366.31 125.11C361.1 125.71 358.32 127.99 357.99 131.97C357.66 135.95 359.33 140.54 363.02 145.72C364.92 148.37 367.05 150.84 369.4 153.1C372.38 155.93 375.81 158.26 379.54 159.99C378.13 161.92 377.89 164.58 378.84 167.97C380.07 171.96 381.97 175.71 384.45 179.07C388.52 184.94 393.69 189.97 399.67 193.87C405.07 197.39 410.43 199.03 415.74 198.81C416.28 198.81 416.82 198.77 417.36 198.68C423.21 198.02 426.28 195.4 426.59 190.81C426.68 189.17 426.52 187.54 426.12 185.95C430.03 190.13 449.6 211.03 484.81 248.64L393.24 225.7L387.14 215L285.02 35.37Z" id="f1dw4lHOkJ"></path><path d="M385.69 142.92C386.14 143.49 386.59 144.1 387.04 144.7C388.85 147.29 389.77 149.46 389.77 151.23C389.77 153 388.73 154.01 386.64 154.25C386.59 154.25 386.18 154.25 386.13 154.25C383.95 154.26 381.82 153.57 380.05 152.3C377.61 150.67 375.51 148.59 373.87 146.16C371.89 143.33 370.93 141.06 370.99 139.35C371.05 137.63 372.11 136.65 374.18 136.41C374.23 136.41 374.65 136.41 374.7 136.41C376.85 136.39 378.95 137.05 380.7 138.29C381.6 138.89 382.45 139.56 383.24 140.3C383.24 140.3 385.44 142.65 385.69 142.92Z" id="adlDeA9O3"></path><path d="M255.99 26L137.46 231.03L255.99 286.08L374.59 231.03L255.99 26Z" id="b3gz5Yev5z"></path><path d="M230.22 222.19C225.52 214.01 223.16 202.35 223.16 187.2C223.16 172.06 225.52 160.38 230.22 152.16C234.92 143.93 243.11 139.82 254.8 139.81C266.49 139.81 274.68 143.92 279.38 152.14C284.08 160.37 286.43 172.05 286.43 187.19C286.43 202.33 284.08 214 279.38 222.18C274.68 230.36 266.48 234.46 254.8 234.46C243.11 234.46 234.92 230.37 230.22 222.19Z" id="gTqhtBuo5"></path><path d="M267.83 187.2C267.83 197.75 267 205.81 265.33 211.4C263.67 216.99 260.16 219.77 254.8 219.73C249.44 219.73 245.89 216.95 244.17 211.4C242.44 205.85 241.57 197.79 241.57 187.2C241.57 176.15 242.44 167.97 244.17 162.66C245.9 157.34 249.44 154.69 254.8 154.69C260.14 154.68 263.65 157.33 265.31 162.64C267 167.97 267.83 176.15 267.83 187.2Z" id="e1Z3etqGhQ"></path><path d="" id="a1GwcQNWu5"></path><path d="M27.19 248.87L119.51 225.02L227.03 35.44L27.19 248.87Z" id="c1bdn4Xs1r"></path><path d="M486.27 250.04L393.95 226.2L286.43 36.62L486.27 250.04Z" id="h1CQnt8bqb"></path></defs><g><g><g><use xlink:href="#gkM9R1p64" opacity="1" fill="#0b0101" fill-opacity="1"></use><g><use xlink:href="#gkM9R1p64" opacity="1" fill-opacity="0" stroke="#000000" stroke-width="1" stroke-opacity="0"></use></g></g><g><use xlink:href="#c1E5csRCXq" opacity="1" fill="#ffffff" fill-opacity="1"></use><g><use xlink:href="#c1E5csRCXq" opacity="1" fill-opacity="0" stroke="#000000" stroke-width="1" stroke-opacity="0"></use></g></g><g><use xlink:href="#a35pu7Zpln" opacity="1" fill="#ffffff" fill-opacity="1"></use><g><use xlink:href="#a35pu7Zpln" opacity="1" fill-opacity="0" stroke="#000000" stroke-width="1" stroke-opacity="0"></use></g></g><g><use xlink:href="#bm5vrGFyE" opacity="1" fill="#ffffff" fill-opacity="1"></use><g><use xlink:href="#bm5vrGFyE" opacity="1" fill-opacity="0" stroke="#000000" stroke-width="1" stroke-opacity="0"></use></g></g><g><use xlink:href="#b7qELigSZ" opacity="1" fill="#fefefe" fill-opacity="1"></use><g><use xlink:href="#b7qELigSZ" opacity="1" fill-opacity="0" stroke="#000000" stroke-width="1" stroke-opacity="0"></use></g></g><g><use xlink:href="#c2cgeHY4li" opacity="1" fill="#ffffff" fill-opacity="1"></use><g><use xlink:href="#c2cgeHY4li" opacity="1" fill-opacity="0" stroke="#000000" stroke-width="1" stroke-opacity="0"></use></g></g><g><use xlink:href="#d1uauDLU" opacity="1" fill="#ffffff" fill-opacity="1"></use><g><use xlink:href="#d1uauDLU" opacity="1" fill-opacity="0" stroke="#000000" stroke-width="1" stroke-opacity="0"></use></g></g><g><use xlink:href="#f1dw4lHOkJ" opacity="1" fill="#ffffff" fill-opacity="1"></use><g><use xlink:href="#f1dw4lHOkJ" opacity="1" fill-opacity="0" stroke="#000000" stroke-width="1" stroke-opacity="0"></use></g></g><g><use xlink:href="#adlDeA9O3" opacity="1" fill="#ffffff" fill-opacity="1"></use><g><use xlink:href="#adlDeA9O3" opacity="1" fill-opacity="0" stroke="#000000" stroke-width="1" stroke-opacity="0"></use></g></g><g><use xlink:href="#b3gz5Yev5z" opacity="1" fill="#ffffff" fill-opacity="1"></use><g><use xlink:href="#b3gz5Yev5z" opacity="1" fill-opacity="0" stroke="#000000" stroke-width="1" stroke-opacity="0"></use></g></g><g><use xlink:href="#gTqhtBuo5" opacity="1" fill="#ffffff" fill-opacity="1"></use><g><use xlink:href="#gTqhtBuo5" opacity="1" fill-opacity="0" stroke="#000000" stroke-width="1" stroke-opacity="0"></use></g></g><g><use xlink:href="#e1Z3etqGhQ" opacity="1" fill="#ffffff" fill-opacity="1"></use><g><use xlink:href="#e1Z3etqGhQ" opacity="1" fill-opacity="0" stroke="#000000" stroke-width="1" stroke-opacity="0"></use></g></g><g><g><use xlink:href="#a1GwcQNWu5" opacity="1" fill-opacity="0" stroke="#f6d9d9" stroke-width="1" stroke-opacity="1"></use></g></g><g><use xlink:href="#c1bdn4Xs1r" opacity="1" fill="#ffffff" fill-opacity="1"></use></g><g><use xlink:href="#h1CQnt8bqb" opacity="1" fill="#ffffff" fill-opacity="1"></use></g></g></g></svg>