<?xml version="1.0" encoding="UTF-8" standalone="no"?>
<!DOCTYPE svg PUBLIC "-//W3C//DTD SVG 1.1//EN" "http://www.w3.org/Graphics/SVG/1.1/DTD/svg11.dtd">
<svg version="1.1" xmlns="http://www.w3.org/2000/svg" xmlns:xlink="http://www.w3.org/1999/xlink" preserveAspectRatio="xMidYMid meet" viewBox="0 0 512 512" width="512" height="512"><defs><path d="M0 0L512 0L512 512L0 512L0 0Z" id="ajUdYc6wn"></path><path d="M398.27 264.07L397.77 266.66L397.26 269.25L396.74 271.83L396.2 274.42L395.64 276.99L395.07 279.57L394.49 282.14L393.89 284.71L393.28 287.27L392.65 289.83L392.01 292.38L391.35 294.94L390.68 297.48L389.99 300.03L389.29 302.57L388.58 305.1L387.84 307.64L387.1 310.16L386.34 312.69L385.57 315.2L384.78 317.72L383.98 320.23L383.16 322.73L382.33 325.23L381.48 327.73L380.62 330.22L379.75 332.7L378.86 335.18L377.95 337.66L377.04 340.13L376.1 342.6L375.16 345.06L374.2 347.51L373.22 349.96L372.23 352.41L371.23 354.85L370.21 357.28L369.18 359.71L368.13 362.13L367.8 362.89L356.63 367.95L353.66 369.28L350.69 370.59L347.7 371.88L344.71 373.15L341.71 374.39L338.71 375.62L335.69 376.83L332.67 378.01L329.64 379.18L326.6 380.32L323.56 381.44L320.51 382.55L317.45 383.63L314.38 384.69L311.31 385.73L308.23 386.75L305.14 387.74L302.05 388.72L298.95 389.67L295.84 390.61L292.73 391.52L289.61 392.41L286.48 393.28L283.35 394.13L280.22 394.96L277.07 395.76L273.93 396.55L270.77 397.31L267.61 398.05L264.45 398.77L261.28 399.47L258.11 400.15L254.93 400.8L251.74 401.44L248.55 402.05L245.36 402.64L242.16 403.21L238.96 403.76L235.75 404.28L232.54 404.79L224.61 406L263.16 263.6L406 221.63L398.75 261.47L398.27 264.07ZM168.52 173.95L170.49 175.67L172.45 177.4L174.4 179.14L176.34 180.89L178.28 182.65L180.2 184.43L182.11 186.21L184.01 188L185.9 189.8L187.79 191.62L189.66 193.44L191.52 195.27L193.37 197.12L195.22 198.97L197.05 200.83L198.87 202.71L200.68 204.59L202.48 206.48L204.27 208.38L206.05 210.29L207.82 212.22L209.58 214.15L211.33 216.09L213.07 218.04L214.8 220L216.52 221.97L218.23 223.94L219.92 225.93L221.61 227.93L223.28 229.94L224.95 231.95L226.6 233.98L228.24 236.01L229.88 238.05L231.5 240.1L233.11 242.17L234.71 244.24L236.29 246.31L237.87 248.4L246.91 260.44L207.44 402.15L193.91 393.02L191.17 391.14L188.45 389.23L185.76 387.29L183.1 385.32L180.46 383.32L177.85 381.29L175.26 379.23L172.7 377.14L170.16 375.02L167.66 372.86L165.18 370.68L162.72 368.47L160.3 366.23L157.9 363.97L155.53 361.67L153.19 359.35L150.88 356.99L148.59 354.61L146.34 352.21L144.11 349.77L141.92 347.31L139.75 344.83L137.61 342.32L135.51 339.78L133.43 337.21L131.39 334.62L129.37 332.01L127.39 329.37L125.44 326.71L123.52 324.02L121.63 321.31L119.78 318.57L117.95 315.81L116.16 313.03L114.41 310.22L112.68 307.4L110.99 304.55L109.33 301.67L107.71 298.78L106.12 295.86L106 295.64L106.12 293.95L106.25 292.26L106.39 290.57L106.53 288.88L106.69 287.19L106.85 285.5L107.02 283.81L107.2 282.12L107.39 280.43L107.58 278.75L107.79 277.06L108 275.37L108.22 273.69L108.46 272L108.7 270.32L108.94 268.64L109.2 266.95L109.47 265.27L109.74 263.59L110.02 261.91L110.31 260.22L110.61 258.54L110.92 256.86L111.24 255.19L111.57 253.51L111.9 251.83L112.24 250.15L112.59 248.47L112.95 246.8L113.32 245.12L113.7 243.45L114.09 241.77L114.48 240.1L114.88 238.42L115.3 236.75L115.72 235.08L116.14 233.41L116.58 231.74L117.03 230.07L117.48 228.4L117.95 226.72L118.42 225.03L118.9 223.34L119.4 221.63L119.9 219.9L120.41 218.17L120.93 216.43L121.47 214.68L122.01 212.91L122.56 211.13L123.12 209.34L123.69 207.54L124.27 205.73L124.86 203.91L125.46 202.08L126.07 200.23L126.69 198.38L127.32 196.51L127.96 194.63L128.61 192.74L129.27 190.84L129.94 188.93L130.62 187L131.31 185.07L132 183.12L132.71 181.16L133.43 179.2L134.16 177.22L134.89 175.22L135.64 173.22L136.4 171.21L137.16 169.18L137.94 167.15L138.72 165.1L139.52 163.04L140.32 160.97L141.14 158.89L141.96 156.79L142.8 154.69L143.64 152.57L166.54 172.24L168.52 173.95ZM296.39 106.04L296.54 106.09L296.72 106.16L296.92 106.25L297.16 106.35L297.42 106.48L296.51 106.67L296.61 106.77L296.8 106.95L297.01 107.15L297.26 107.37L297.53 107.61L297.83 107.87L298.16 108.14L298.52 108.44L298.9 108.76L299.32 109.09L299.76 109.44L300.23 109.82L300.73 110.21L301.25 110.62L301.81 111.05L302.39 111.5L303 111.97L303.64 112.46L304.3 112.96L305 113.49L305.72 114.04L306.47 114.6L307.25 115.18L308.06 115.79L308.89 116.41L310.15 117.35L311.38 118.28L312.58 119.2L313.75 120.11L314.9 121.02L316.03 121.91L317.13 122.8L318.22 123.68L319.28 124.56L320.33 125.43L321.36 126.3L322.38 127.16L323.38 128.02L324.37 128.88L325.36 129.75L326.33 130.61L327.3 131.47L328.26 132.33L329.22 133.2L330.18 134.07L331.13 134.94L332.09 135.82L333.04 136.7L334.01 137.6L334.97 138.49L335.95 139.4L336.93 140.32L337.92 141.24L338.92 142.18L339.94 143.13L340.96 144.09L342.01 145.06L343.07 146.05L344.15 147.05L345.25 148.07L346.38 149.1L347.52 150.15L348.69 151.22L349.89 152.31L351.12 153.42L351.95 154.18L352.8 154.97L353.66 155.78L354.54 156.63L355.44 157.51L356.35 158.41L357.28 159.35L358.22 160.31L359.18 161.31L360.15 162.33L361.14 163.38L362.14 164.47L363.16 165.58L364.2 166.72L365.25 167.89L366.32 169.09L367.4 170.32L368.5 171.57L369.61 172.86L370.74 174.18L371.88 175.52L373.04 176.9L374.21 178.3L375.4 179.74L376.61 181.2L377.83 182.69L379.07 184.22L380.32 185.77L381.59 187.35L382.87 188.96L384.17 190.6L385.48 192.27L386.81 193.97L388.16 195.69L389.52 197.45L390.89 199.24L392.28 201.05L393.69 202.9L395.11 204.77L396.55 206.67L258.87 248.19L253.96 241.46L252.41 239.35L250.85 237.24L249.28 235.15L247.7 233.07L246.11 230.99L244.51 228.92L242.89 226.87L241.27 224.82L239.63 222.78L237.98 220.75L236.33 218.73L234.66 216.72L232.98 214.71L231.29 212.72L229.58 210.74L227.87 208.76L226.15 206.8L224.41 204.84L222.67 202.9L220.91 200.96L219.15 199.04L217.37 197.12L215.59 195.21L213.79 193.32L211.98 191.43L210.16 189.55L208.33 187.68L206.49 185.83L204.65 183.98L202.79 182.14L200.92 180.31L199.04 178.5L197.15 176.69L195.25 174.89L193.34 173.11L191.42 171.33L189.49 169.56L187.55 167.81L185.6 166.06L183.64 164.33L162.03 145.29L191.41 134.22L193.18 133.55L194.96 132.9L196.73 132.25L198.51 131.61L200.29 130.97L202.07 130.35L203.86 129.72L205.64 129.11L207.43 128.51L209.23 127.91L211.02 127.31L212.82 126.73L214.62 126.15L216.42 125.58L218.22 125.02L220.03 124.46L221.84 123.91L223.65 123.37L225.46 122.84L227.27 122.31L229.09 121.79L230.91 121.28L232.73 120.77L234.55 120.28L236.37 119.78L238.2 119.3L240.03 118.82L241.86 118.36L243.69 117.89L245.53 117.44L247.36 116.99L249.2 116.55L251.04 116.12L252.88 115.69L254.72 115.28L256.57 114.87L258.42 114.46L260.26 114.07L262.11 113.68L263.97 113.3L296.51 106.67L296.45 106.61L296.32 106.46L296.21 106.34L296.14 106.24L296.09 106.15L296.07 106.09L296.08 106.04L296.11 106.01L296.18 106L296.27 106.01L296.39 106.04Z" id="a27upGuM"></path></defs><g><g><g><use xlink:href="#ajUdYc6wn" opacity="1" fill="#0b0101" fill-opacity="1"></use><g><use xlink:href="#ajUdYc6wn" opacity="1" fill-opacity="0" stroke="#000000" stroke-width="1" stroke-opacity="0"></use></g></g><g><use xlink:href="#a27upGuM" opacity="1" fill="#ffffff" fill-opacity="1"></use></g></g></g></svg>