<?xml version="1.0" encoding="UTF-8" standalone="no"?>
<!DOCTYPE svg PUBLIC "-//W3C//DTD SVG 1.1//EN" "http://www.w3.org/Graphics/SVG/1.1/DTD/svg11.dtd">
<svg version="1.1" xmlns="http://www.w3.org/2000/svg" xmlns:xlink="http://www.w3.org/1999/xlink" preserveAspectRatio="xMidYMid meet" viewBox="0 0 512 512" width="512" height="512"><defs><path d="M512 512L0 512L0 0L512 0L512 512ZM476 476L476 36L36 36L36 476L476 476Z" id="af5WbU67b"></path><path d="M36 476L18 494L18 18L36 36L36 476Z" id="a30ndEzrUv"></path><path d="M494 18L494 494L476 476L476 36L476 36L494 18Z" id="a22OKr743"></path><path d="M494 494L18 494L36 476L476 476L476 476L494 494Z" id="csXU6sYms"></path><path d="M476 36L36 36L18 18L494 18L476 36Z" id="axCIn5ZhB"></path></defs><g><g><g><use xlink:href="#af5WbU67b" opacity="1" fill="#000000" fill-opacity="1"></use></g><g><use xlink:href="#a30ndEzrUv" opacity="1" fill="#5c5c5c" fill-opacity="1"></use></g><g><use xlink:href="#a22OKr743" opacity="1" fill="#b8b8b8" fill-opacity="1"></use></g><g><use xlink:href="#csXU6sYms" opacity="1" fill="#8a8a8a" fill-opacity="1"></use></g><g><use xlink:href="#axCIn5ZhB" opacity="1" fill="#2e2e2e" fill-opacity="1"></use></g></g></g></svg>