<?xml version="1.0" encoding="UTF-8" standalone="no"?>
<!DOCTYPE svg PUBLIC "-//W3C//DTD SVG 1.1//EN" "http://www.w3.org/Graphics/SVG/1.1/DTD/svg11.dtd">
<svg version="1.1" xmlns="http://www.w3.org/2000/svg" xmlns:xlink="http://www.w3.org/1999/xlink" preserveAspectRatio="xMidYMid meet" viewBox="0 0 512 512" width="512" height="512"><defs><path d="M0 0L512 0L512 512L0 512L0 0Z" id="a3HHI17uGs"></path><path d="M36 74.5C36 110.8 36 401.2 36 437.5C36 458.76 53.24 476 74.5 476C110.8 476 401.2 476 437.5 476C458.76 476 476 458.76 476 437.5C476 401.2 476 110.8 476 74.5C476 53.24 458.76 36 437.5 36C413.3 36 292.3 36 74.5 36C48.83 47.49 36 60.32 36 74.5Z" id="b5W6gdb0mZ"></path><path d="M299.3 281C290.37 296.47 273.86 306 256 306C217.51 306 193.45 264.33 212.7 231C221.63 215.53 238.14 206 256 206C294.49 206 318.55 247.67 299.3 281Z" id="ba3DsNYU7"></path><path d="M281.04 52C284.88 52 288 55.12 288 58.96C288 139.49 288 374.11 288 454.64C288 458.48 284.88 461.6 281.04 461.6C269.63 461.6 242.36 461.6 230.96 461.6C227.11 461.6 224 458.48 224 454.64C224 374.11 224 139.49 224 58.96C224 55.12 227.11 52 230.96 52C242.36 52 269.63 52 281.04 52Z" id="d3qJ5oUuwf"></path><path d="M54.51 288C52.68 288 51.2 286.52 51.2 284.69C51.2 272.55 51.2 239.45 51.2 227.31C51.2 225.48 52.68 224 54.51 224C135.77 224 376.23 224 457.49 224C459.32 224 460.8 225.48 460.8 227.31C460.8 239.45 460.8 272.55 460.8 284.69C460.8 286.52 459.32 288 457.49 288C376.23 288 135.77 288 54.51 288Z" id="f5eogatVgu"></path></defs><g><g><g><use xlink:href="#a3HHI17uGs" opacity="1" fill="#0b0101" fill-opacity="1"></use><g><use xlink:href="#a3HHI17uGs" opacity="1" fill-opacity="0" stroke="#000000" stroke-width="1" stroke-opacity="0"></use></g></g><g><use xlink:href="#b5W6gdb0mZ" opacity="1" fill="#ffffff" fill-opacity="1"></use><g><use xlink:href="#b5W6gdb0mZ" opacity="1" fill-opacity="0" stroke="#000000" stroke-width="1" stroke-opacity="0"></use></g></g><g><use xlink:href="#ba3DsNYU7" opacity="1" fill="#ffffff" fill-opacity="1"></use><g><use xlink:href="#ba3DsNYU7" opacity="1" fill-opacity="0" stroke="#000000" stroke-width="1" stroke-opacity="0"></use></g></g><g><use xlink:href="#d3qJ5oUuwf" opacity="1" fill="#000000" fill-opacity="1"></use></g><g><use xlink:href="#f5eogatVgu" opacity="1" fill="#000000" fill-opacity="1"></use></g></g></g></svg>