<?xml version="1.0" encoding="UTF-8" standalone="no"?>
<!DOCTYPE svg PUBLIC "-//W3C//DTD SVG 1.1//EN" "http://www.w3.org/Graphics/SVG/1.1/DTD/svg11.dtd">
<svg version="1.1" xmlns="http://www.w3.org/2000/svg" xmlns:xlink="http://www.w3.org/1999/xlink" preserveAspectRatio="xMidYMid meet" viewBox="0 0 512 512" width="512" height="512"><defs><path d="M0 0L512 0L512 512L0 512L0 0Z" id="d26IwujAD"></path><path d="M252.18 166.78L252.18 196.24L235.11 196.24L252.18 166.78Z" id="d5UDpoCE9t"></path><path d="M486.95 456L25.05 456L256 56L486.95 456Z" id="a2XkO3qok0"></path><path d="M128.32 401.17L169.53 378.22L162.83 366.15L103.13 399.45C106.4 405.34 108.22 408.6 108.59 409.26C109.43 408.86 110.32 408.56 111.23 408.38C113.06 407.91 114.96 407.88 116.8 408.29C119.27 408.95 121.49 410.35 123.14 412.3C125.01 414.62 126.71 417.08 128.21 419.65C128.74 419.36 131.41 417.87 136.2 415.2L128.32 401.17Z" id="a3iYtA48ck"></path><path d="M265.33 196.24L265.33 153.51L250.24 153.51L225.1 195.02L225.1 206.77L252.17 206.77L252.17 221.49L265.33 221.49L265.33 206.77L273.07 206.77L273.07 196.25L265.33 196.24Z" id="b1F4ZXucI1"></path><path d="M405.31 386.96C403.14 383.53 399.58 380.29 394.63 377.21C393.99 378.34 388.8 387.41 388.15 388.55C390.66 389.95 392.87 391.81 394.68 394.03C396.6 396.82 396.54 400 394.51 403.55C393.35 405.9 391.17 407.58 388.6 408.1C386.01 408.52 383.36 407.98 381.13 406.6C377.96 404.72 375.64 401.66 374.7 398.09C373.55 393.1 372.78 388.03 372.4 382.92C371.53 374.2 369.59 367.87 366.58 363.94C363.94 360.11 360.5 356.89 356.49 354.52C354.94 357.23 347.18 370.8 333.21 395.23L343.48 401.11C352.38 385.56 357.32 376.92 358.31 375.19C359.11 376.62 359.68 378.16 359.99 379.77C360.3 381.38 360.66 384.24 361.05 388.36C361.12 389.01 361.63 394.27 361.69 394.93C361.97 399.31 362.89 403.63 364.41 407.75C366.26 412.26 369.6 416.02 373.87 418.39C379.6 421.66 385.26 422.44 390.87 420.72C396.47 418.99 401.07 414.99 404.68 408.7C409.24 400.74 409.45 393.49 405.31 386.96Z" id="crTgmFtQA"></path><path d="M136.33 256L486.95 456L136.33 256Z" id="h1502pxpt0"></path><path d="M370.74 256L256 324.6L256 456" id="d12BwD9HT8"></path><path d="M370.74 256L256 323.45L139.54 256" id="a12GI8Eyk"></path><path d="M255.14 456L256 323.45" id="dvhtCUVW"></path><path d="M305.7 203.36C305.7 238.53 283.43 267.09 256 267.09C228.57 267.09 206.3 238.53 206.3 203.36C206.3 168.19 228.57 139.64 256 139.64C283.43 139.64 305.7 168.19 305.7 203.36Z" id="hgb1o8vJS"></path><path d="M177.38 392.9C177.38 424.94 156.78 450.95 131.4 450.95C106.03 450.95 85.43 424.94 85.43 392.9C85.43 360.87 106.03 334.86 131.4 334.86C156.78 334.86 177.38 360.87 177.38 392.9Z" id="b3Z8I8WCC1"></path><path d="M195.08 389.72C195.08 421.76 174.48 447.77 149.11 447.77C123.73 447.77 103.13 421.76 103.13 389.72C103.13 357.69 123.73 331.68 149.11 331.68C174.48 331.68 195.08 357.69 195.08 389.72Z" id="aw8F65imU"></path></defs><g><g><g><use xlink:href="#d26IwujAD" opacity="1" fill="#0b0101" fill-opacity="1"></use></g><g><use xlink:href="#d5UDpoCE9t" opacity="1" fill="#ffffff" fill-opacity="1"></use><g><use xlink:href="#d5UDpoCE9t" opacity="1" fill-opacity="0" stroke="#000000" stroke-width="1" stroke-opacity="0"></use></g></g><g><use xlink:href="#a2XkO3qok0" opacity="1" fill="#ffffff" fill-opacity="1"></use><g><use xlink:href="#a2XkO3qok0" opacity="1" fill-opacity="0" stroke="#000000" stroke-width="15" stroke-opacity="0"></use></g></g><g><use xlink:href="#a3iYtA48ck" opacity="1" fill="#ffffff" fill-opacity="1"></use><g><use xlink:href="#a3iYtA48ck" opacity="1" fill-opacity="0" stroke="#000000" stroke-width="1" stroke-opacity="0.1"></use></g></g><g><use xlink:href="#b1F4ZXucI1" opacity="1" fill="#fefefe" fill-opacity="1"></use><g><use xlink:href="#b1F4ZXucI1" opacity="1" fill-opacity="0" stroke="#000000" stroke-width="1" stroke-opacity="0.1"></use></g></g><g><use xlink:href="#crTgmFtQA" opacity="1" fill="#ffffff" fill-opacity="1"></use><g><use xlink:href="#crTgmFtQA" opacity="1" fill-opacity="0" stroke="#000000" stroke-width="1" stroke-opacity="0.1"></use></g></g><g><g><use xlink:href="#h1502pxpt0" opacity="1" fill-opacity="0" stroke="#000000" stroke-width="15" stroke-opacity="0.01"></use></g></g><g><g><use xlink:href="#d12BwD9HT8" opacity="1" fill-opacity="0" stroke="#100101" stroke-width="1" stroke-opacity="0.04"></use></g></g><g><g><use xlink:href="#a12GI8Eyk" opacity="1" fill-opacity="0" stroke="#000000" stroke-width="20" stroke-opacity="1"></use></g></g><g><g><use xlink:href="#dvhtCUVW" opacity="1" fill-opacity="0" stroke="#000000" stroke-width="20" stroke-opacity="1"></use></g></g><g><use xlink:href="#hgb1o8vJS" opacity="1" fill="#ffffff" fill-opacity="1"></use></g><g><use xlink:href="#b3Z8I8WCC1" opacity="1" fill="#ffffff" fill-opacity="1"></use></g><g><use xlink:href="#aw8F65imU" opacity="1" fill="#ffffff" fill-opacity="1"></use></g></g></g></svg>